<svg width="33" height="24" viewBox="0 0 33 24" fill="none" xmlns="http://www.w3.org/2000/svg">
<g id="My-task">
<g id="carbon:task">
<path id="Vector" d="M19 15.135L16.3075 12.4425L15.25 13.5L19 17.25L25.75 10.5L24.6925 9.435L19 15.135Z" fill="black"/>
<path id="Vector_2" d="M27.25 3.79821H25V3.03214C25 2.62579 24.842 2.23609 24.5607 1.94875C24.2794 1.66142 23.8978 1.5 23.5 1.5H17.5C17.1022 1.5 16.7206 1.66142 16.4393 1.94875C16.158 2.23609 16 2.62579 16 3.03214V3.79821H13.75C13.3522 3.79821 12.9706 3.95963 12.6893 4.24696C12.408 4.53429 12.25 4.924 12.25 5.33035V21.4178C12.25 21.8242 12.408 22.2139 12.6893 22.5012C12.9706 22.7885 13.3522 22.95 13.75 22.95H27.25C27.6478 22.95 28.0294 22.7885 28.3107 22.5012C28.592 22.2139 28.75 21.8242 28.75 21.4178V5.33035C28.75 4.924 28.592 4.53429 28.3107 4.24696C28.0294 3.95963 27.6478 3.79821 27.25 3.79821ZM17.5 3.03214H23.5V6.09642H17.5V3.03214ZM27.25 21.4178H13.75V5.33035H16V7.62856H25V5.33035H27.25V21.4178Z" fill="black"/>
</g>
<path id="Vector_3" d="M12 14C13.6101 13.999 15.1957 14.1879 16.7568 14.5674C18.3163 14.9465 19.8541 15.5131 21.3701 16.2686V16.2695C22.0122 16.6016 22.5273 17.0812 22.9189 17.7188C23.3076 18.3516 23.5009 19.0421 23.5 19.7998V23.5H0.5V19.7998C0.500034 19.0407 0.694363 18.3505 1.08301 17.7188C1.47341 17.0842 1.98563 16.6055 2.62402 16.2725C4.14181 15.5136 5.681 14.946 7.24219 14.5684C8.80361 14.1907 10.3895 14.001 12 14ZM12 0.5C13.5163 0.5 14.8018 1.03423 15.8838 2.11621C16.9658 3.19819 17.5 4.48366 17.5 6C17.5 7.51634 16.9658 8.80181 15.8838 9.88379C14.8018 10.9658 13.5163 11.5 12 11.5C10.4837 11.5 9.19819 10.9658 8.11621 9.88379C7.03423 8.80181 6.5 7.51634 6.5 6C6.5 4.48366 7.03423 3.19819 8.11621 2.11621C9.19819 1.03423 10.4837 0.5 12 0.5Z" fill="black" stroke="white"/>
</g>
</svg>
